<svg width="208" height="54" viewBox="0 0 208 54" fill="none" xmlns="http://www.w3.org/2000/svg">
<g clip-path="url(#clip0_6346_540)">
<path d="M87.4838 22.8187C86.2175 22.8187 84.4414 22.7118 83.8575 22.7118C83.5039 22.7118 82.2869 22.7693 81.9087 22.7693V22.4404C82.1692 22.4038 82.4084 22.2766 82.5844 22.0811C82.7603 21.8856 82.8617 21.6343 82.8708 21.3714V12.17C82.8519 11.9162 82.7457 11.6768 82.5703 11.4925C82.395 11.3081 82.1612 11.1901 81.9087 11.1585V10.8296C82.2869 10.8296 83.5039 10.879 83.8575 10.879C84.4414 10.879 86.2175 10.7556 87.4838 10.7556C91.5131 10.7556 94.2513 13.461 94.2513 16.9886C94.2513 20.5162 91.4884 22.8187 87.4838 22.8187ZM86.8013 11.5121C86.1302 11.5071 85.4597 11.5511 84.7949 11.6437V21.8319C85.4245 21.9167 86.0592 21.958 86.6944 21.9553C90.0412 21.9553 92.1462 19.8995 92.1462 16.9146C92.164 16.2051 92.0384 15.4994 91.7768 14.8397C91.5152 14.18 91.1231 13.5799 90.624 13.0754C90.1249 12.5709 89.529 12.1724 88.8721 11.9038C88.2153 11.6352 87.5109 11.5019 86.8013 11.5121Z" fill="white"/>
<path d="M112.572 22.8186C111.536 22.7267 110.495 22.691 109.455 22.7117H105.607C105.254 22.7117 104.037 22.7693 103.658 22.7693V22.4403C103.919 22.4038 104.158 22.2765 104.334 22.081C104.51 21.8855 104.611 21.6342 104.62 21.3714V12.1699C104.601 11.9162 104.495 11.6768 104.32 11.4924C104.145 11.308 103.911 11.1901 103.658 11.1585V10.8296H111.437C111.717 10.8326 111.995 10.7881 112.26 10.698H112.588L112.531 13.0333H112.202C112.054 12.6374 111.782 12.3001 111.426 12.0719C111.07 11.8436 110.65 11.7366 110.228 11.767H106.503V16.0758H109.793C110.036 16.0881 110.279 16.0332 110.493 15.9172C110.708 15.8012 110.886 15.6285 111.01 15.418H111.339C111.339 15.7222 111.339 16.306 111.339 16.5034C111.339 16.7007 111.339 17.2681 111.339 17.597H111.01C110.882 17.3923 110.702 17.2255 110.488 17.1141C110.274 17.0028 110.034 16.9509 109.793 16.9639H106.503V21.8072H110.187C110.654 21.8696 111.129 21.7891 111.548 21.5762C111.968 21.3634 112.314 21.0281 112.539 20.6149L112.876 20.6889L112.572 22.8186Z" fill="white"/>
<path d="M131.567 22.8186C130.531 22.7269 129.491 22.6912 128.451 22.7117H124.602C124.24 22.7117 123.032 22.7693 122.645 22.7693V22.4404C122.906 22.4053 123.146 22.2786 123.323 22.0827C123.499 21.8869 123.6 21.6348 123.607 21.3714V12.1699C123.607 11.693 123.336 11.3065 122.571 11.1585V10.8296C122.851 10.8296 124.216 10.8789 124.602 10.8789L126.6 10.8296V11.1585C125.869 11.3394 125.54 11.6683 125.54 12.1699V21.7003H129.215C129.712 21.7527 130.212 21.6392 130.638 21.3773C131.063 21.1155 131.39 20.7202 131.567 20.2531L131.896 20.3353L131.567 22.8186Z" fill="white"/>
<path d="M145.546 17.8027C144.863 17.8027 144.156 17.8027 143.622 17.7204V21.3796C143.651 21.6409 143.767 21.8849 143.95 22.0738C144.133 22.2627 144.373 22.3858 144.633 22.424V22.7529C144.255 22.7529 142.988 22.6953 142.635 22.6953C142.281 22.6953 141.114 22.7529 140.727 22.7529V22.424C140.99 22.394 141.234 22.2733 141.417 22.0826C141.6 21.892 141.711 21.6433 141.73 21.3796V12.17C141.716 11.9133 141.61 11.6703 141.432 11.4849C141.254 11.2994 141.016 11.1836 140.76 11.1585V10.8296C141.147 10.8296 142.364 10.879 142.717 10.879C143.301 10.879 144.995 10.7556 145.653 10.7556C147.988 10.7556 150.315 11.767 150.315 14.2997C150.315 16.4459 148.317 17.8027 145.546 17.8027ZM145.126 11.5121C144.633 11.5147 144.141 11.5588 143.655 11.6437V16.783C144.184 16.8494 144.716 16.8851 145.25 16.8899C147.503 16.8899 148.218 15.6729 148.218 14.275C148.218 12.6798 147.1 11.5121 145.126 11.5121Z" fill="white"/>
<path d="M170.725 22.7117C170.371 22.7117 169.129 22.7693 168.85 22.7693V22.4404C169.077 22.3785 169.278 22.2466 169.426 22.0635C169.573 21.8805 169.66 21.6556 169.672 21.4207V16.9639H162.345V21.4207C162.364 21.6635 162.461 21.8937 162.621 22.0773C162.781 22.2609 162.996 22.3882 163.233 22.4404V22.7693C162.954 22.7693 161.688 22.7117 161.334 22.7117C160.98 22.7117 159.837 22.7693 159.558 22.7693V22.4404C159.785 22.3785 159.986 22.2466 160.134 22.0635C160.282 21.8805 160.368 21.6556 160.38 21.4207V12.1699C160.365 11.9369 160.277 11.7144 160.13 11.5332C159.983 11.352 159.783 11.2211 159.558 11.1585V10.8296C159.837 10.8296 161.03 10.8789 161.334 10.8789C161.638 10.8789 162.979 10.8296 163.233 10.8296V11.1585C162.997 11.2103 162.783 11.3364 162.623 11.5183C162.464 11.7003 162.366 11.9286 162.345 12.1699V15.9525H169.672V12.1699C169.664 11.9347 169.58 11.7084 169.431 11.5257C169.283 11.3431 169.078 11.2141 168.85 11.1585V10.8296C169.129 10.8296 170.371 10.8789 170.725 10.8789C171.078 10.8789 172.246 10.8296 172.525 10.8296V11.1585C172.289 11.2103 172.075 11.3364 171.915 11.5183C171.755 11.7003 171.658 11.9286 171.637 12.1699V21.4207C171.66 21.6622 171.758 21.8905 171.917 22.0734C172.077 22.2563 172.289 22.3847 172.525 22.4404V22.7693C172.246 22.7693 171.037 22.7117 170.725 22.7117Z" fill="white"/>
<path d="M184.539 22.7117C184.185 22.7117 182.738 22.7693 182.459 22.7693V22.4404C183.223 22.2841 183.528 21.9059 183.528 21.4207V12.1699C183.528 11.693 183.223 11.3065 182.459 11.1585V10.8296C182.738 10.8296 184.185 10.8789 184.539 10.8789L186.545 10.8296V11.1585C185.805 11.3394 185.452 11.6683 185.452 12.1699V21.4207C185.452 21.9305 185.805 22.243 186.545 22.4404V22.7693C186.266 22.7693 184.843 22.7117 184.539 22.7117Z" fill="white"/>
<path d="M207.218 22.3087C206.876 22.3265 206.537 22.3788 206.206 22.4649C205.101 22.7358 203.972 22.8955 202.835 22.9419C198.197 22.9419 195.911 20.2036 195.911 16.7829C195.911 13.3622 198.633 10.6897 202.868 10.6897C203.784 10.7147 204.695 10.8444 205.582 11.0762C206.065 11.1779 206.554 11.252 207.045 11.2982L207.201 13.4279H206.873C206.108 12.0629 204.34 11.5778 202.868 11.5778C199.825 11.5778 198.049 13.9131 198.049 16.824C198.049 19.184 199.776 22.0949 202.868 22.0949C204.414 22.0949 206.264 21.692 207.07 20.2447H207.399L207.218 22.3087Z" fill="white"/>
<path d="M84.1207 36.4358H85.239L87.3358 41.8876L89.4327 36.4358H90.551L87.8703 43.2526H86.8013L84.1207 36.4358Z" fill="white"/>
<path d="M106.553 42.2823V43.2526H101.619V36.4358H106.438V37.4143H102.705V39.2151H105.673V40.1854H102.705V42.2823H106.553Z" fill="white"/>
<path d="M123.624 36.4358V43.2526H122.703L118.904 38.3188V43.2526H117.835V36.4358H118.756L122.555 41.3696V36.4358H123.624Z" fill="white"/>
<path d="M139.79 36.4358V37.4143H137.751V43.2526H136.682V37.4143H134.609V36.4358H139.79Z" fill="white"/>
<path d="M154.797 41.8301C154.97 41.6616 155.107 41.4593 155.199 41.2359C155.291 41.0124 155.336 40.7725 155.331 40.5309V36.4194H156.409V40.5309C156.416 40.9014 156.347 41.2696 156.206 41.6121C156.064 41.9546 155.853 42.264 155.586 42.5208C155.042 43.0527 154.312 43.3505 153.551 43.3505C152.79 43.3505 152.06 43.0527 151.516 42.5208C151.249 42.2634 151.039 41.9539 150.898 41.6115C150.756 41.2691 150.687 40.9013 150.694 40.5309V36.4194H151.771V40.5309C151.767 40.7736 151.813 41.0145 151.904 41.2392C151.996 41.4639 152.133 41.6677 152.305 41.8383C152.467 42.0121 152.663 42.1501 152.881 42.2435C153.099 42.337 153.334 42.3839 153.572 42.3811C153.803 42.3806 154.032 42.3313 154.243 42.2364C154.454 42.1415 154.643 42.003 154.797 41.8301Z" fill="white"/>
<path d="M168.077 36.4358H170.946C171.529 36.4205 172.093 36.6363 172.517 37.0361C172.805 37.3308 173.004 37.7018 173.088 38.1054C173.173 38.5089 173.14 38.9282 172.994 39.3139C172.92 39.5274 172.802 39.7234 172.649 39.8895C172.528 40.021 172.395 40.1421 172.254 40.2513C172.152 40.3418 172.035 40.4141 171.909 40.4651L171.769 40.5308L173.331 43.2526H172.163L170.7 40.6213H169.146V43.2526H168.077V36.4358ZM171.744 37.735C171.637 37.6274 171.508 37.5433 171.367 37.4881C171.225 37.4328 171.074 37.4077 170.922 37.4144H169.146V39.651H170.946C171.094 39.6544 171.241 39.6277 171.378 39.5727C171.516 39.5177 171.64 39.4355 171.745 39.331C171.849 39.2264 171.932 39.1018 171.987 38.9646C172.042 38.8274 172.068 38.6805 172.065 38.5327C172.069 38.3848 172.043 38.2377 171.987 38.1005C171.932 37.9633 171.849 37.8389 171.744 37.735Z" fill="white"/>
<path d="M189.621 42.2823V43.2526H184.687V36.4358H189.514V37.4143H185.764V39.2151H188.733V40.1854H185.764V42.2823H189.621Z" fill="white"/>
<path d="M203.929 40.7776C203.785 40.6274 203.608 40.5145 203.411 40.4486C203.182 40.3613 202.949 40.2872 202.712 40.2266C202.449 40.1608 202.194 40.0786 201.939 39.9882C201.695 39.8963 201.461 39.7807 201.24 39.6428C201.019 39.5038 200.84 39.3078 200.722 39.0754C200.584 38.8002 200.516 38.4951 200.524 38.1873C200.518 37.9368 200.568 37.688 200.672 37.46C200.776 37.232 200.931 37.0307 201.125 36.8717C201.587 36.4947 202.174 36.3041 202.769 36.3372C203.017 36.3366 203.263 36.3698 203.501 36.4359C203.701 36.4824 203.895 36.5542 204.077 36.6497L204.488 36.9046C204.578 36.9661 204.661 37.0379 204.735 37.1184L204.817 37.217L204.134 37.8995C204.111 37.8812 204.092 37.8589 204.077 37.8338C204.03 37.782 203.977 37.7351 203.92 37.694C203.836 37.627 203.745 37.5691 203.649 37.5213C203.528 37.4539 203.398 37.4041 203.263 37.3733C203.101 37.3329 202.935 37.3136 202.769 37.3157C202.473 37.3078 202.183 37.4006 201.947 37.5788C201.859 37.6423 201.785 37.7235 201.731 37.8172C201.676 37.9109 201.642 38.0151 201.631 38.1228C201.619 38.2306 201.63 38.3397 201.663 38.4429C201.697 38.5461 201.751 38.6411 201.824 38.7218C201.969 38.8694 202.146 38.9818 202.342 39.0507C202.57 39.1381 202.804 39.2122 203.041 39.2728C203.303 39.3372 203.561 39.4168 203.814 39.5112C204.058 39.5969 204.293 39.71 204.513 39.8484C204.733 39.9874 204.912 40.1834 205.031 40.4158C205.216 40.8055 205.273 41.244 205.193 41.668C205.113 42.0921 204.901 42.4799 204.587 42.7757C204.082 43.1849 203.442 43.3903 202.794 43.3513C202.494 43.3517 202.196 43.313 201.906 43.2362C201.666 43.1762 201.434 43.0879 201.215 42.9731C201.051 42.8805 200.895 42.7761 200.746 42.6606C200.644 42.5805 200.548 42.4925 200.459 42.3975L200.36 42.2824L201.042 41.5999C201.061 41.6301 201.083 41.6577 201.108 41.6821C201.17 41.7488 201.236 41.8119 201.306 41.8712C201.412 41.9627 201.528 42.0426 201.651 42.1097C201.808 42.1902 201.974 42.2536 202.144 42.2988C202.357 42.3519 202.575 42.3796 202.794 42.381C203.155 42.3993 203.51 42.2886 203.797 42.0686C203.911 41.9767 204.003 41.8602 204.066 41.7277C204.128 41.5953 204.16 41.4503 204.159 41.3038C204.157 41.2053 204.136 41.108 204.096 41.0177C204.057 40.9274 204 40.8458 203.929 40.7776Z" fill="white"/>
<path d="M5.75628 10.3444C6.09342 9.91678 6.43879 9.52207 6.8006 9.09448L7.67223 9.86744C7.32686 10.2621 6.98972 10.6897 6.66903 11.068L7.59822 11.7916L8.06693 12.1534L8.52741 12.5234L9.4566 13.2553L10.3858 13.9789L11.315 14.7107L11.5617 14.8999L12.2442 15.4344C12.0139 15.7304 11.7919 16.0346 11.5699 16.3471C11.3479 16.6596 11.1505 16.9803 10.9614 17.301C10.7723 17.6217 10.5749 17.9506 10.4022 18.2877C10.2296 18.6249 10.0569 18.962 9.90887 19.2991C9.76085 19.6363 9.60462 19.9981 9.47305 20.3435L8.92211 20.1379L8.37118 19.9323L7.26108 19.5047L6.15921 19.0936C6.32367 18.6742 6.49635 18.2713 6.67725 17.8437C6.85816 17.4161 7.05551 17.0214 7.2693 16.6349L6.22499 16.0922C6.00297 16.5116 5.7974 16.9145 5.60827 17.3668C5.41914 17.819 5.23002 18.2384 5.06556 18.6824C4.9011 19.1265 4.73664 19.5705 4.59685 20.0228L5.75628 20.3681L6.17565 20.4997L6.88283 20.7217L8.00114 21.0753L8.82344 21.3138L10.3036 21.7742C11.0404 19.4018 12.2769 17.2148 13.9299 15.3604L14.8097 16.1415C13.2698 17.8735 12.1175 19.9145 11.4301 22.1278C11.3314 22.4403 11.241 22.7528 11.1588 23.0735C10.8858 24.1972 10.7315 25.3465 10.6983 26.5024C10.6632 27.6621 10.7487 28.8223 10.9532 29.9643C11.019 30.285 11.0847 30.6057 11.167 30.9264C11.4373 32.0614 11.8287 33.1641 12.3346 34.2155C12.8455 35.2525 13.4628 36.2336 14.1766 37.1429C14.3821 37.406 14.5877 37.6609 14.8097 37.9076C16.3473 39.6528 18.2359 41.0538 20.352 42.0191C20.6562 42.1589 20.9605 42.2822 21.2647 42.3974C22.342 42.8103 23.4616 43.1026 24.6032 43.269C25.175 43.3599 25.7516 43.4175 26.3301 43.4417C26.9079 43.4746 27.4872 43.4746 28.0651 43.4417C28.4022 43.4417 28.7312 43.3923 29.0601 43.3594C30.2046 43.2172 31.3315 42.9582 32.4233 42.5865C33.5136 42.2069 34.561 41.7135 35.548 41.1146C35.8276 40.9419 36.1071 40.7692 36.3703 40.5801C38.2779 39.2575 39.886 37.5485 41.0902 35.5641C41.2629 35.2845 41.4274 34.9967 41.5754 34.7418C42.0954 33.6775 42.4926 32.5574 42.7595 31.4033C43.0828 30.2801 43.2813 29.1246 43.3515 27.9579C43.3515 27.629 43.3515 27.3001 43.3515 26.9711H51.5745C51.5745 27.4645 51.5745 27.9579 51.5745 28.4513C51.5745 28.9446 51.5005 29.438 51.4429 29.9314C51.3853 30.4248 51.3113 30.9181 51.2209 31.4033C51.1304 31.8885 51.0235 32.3818 50.9084 32.867C50.7933 33.3521 50.6535 33.8291 50.5055 34.2978L49.8312 34.084L49.3872 33.9524L48.2524 33.5988L47.1259 33.2452C47.2574 32.8423 47.3643 32.4229 47.4712 32.02C47.5781 31.6171 47.6604 31.1977 47.7344 30.7701L46.5749 30.5646C46.5091 30.9593 46.4269 31.354 46.3282 31.7487C46.2296 32.1351 46.1227 32.5216 46.0075 32.8999C45.8924 33.2781 45.7526 33.6646 45.6128 34.0429L46.7147 34.4622L47.8166 34.8816L48.9185 35.2927L50.0203 35.7121L51.1222 36.1233C51.681 34.6637 52.1022 33.155 52.3803 31.6171C52.6592 30.0842 52.7996 28.5292 52.7997 26.9711H53.9756C53.9737 28.6007 53.8278 30.227 53.5397 31.8309C53.2452 33.4382 52.8048 35.0153 52.2241 36.5426C52.035 37.0525 51.8212 37.5541 51.5991 38.0556C50.0283 41.5354 47.7388 44.6432 44.881 47.1749C44.4781 47.5367 44.0587 47.8821 43.6311 48.2192C43.2035 48.5563 42.7677 48.877 42.3154 49.1895C39.6229 51.0507 36.6134 52.405 33.4347 53.1858C32.9084 53.3174 32.3739 53.4325 31.8394 53.5312C29.9676 53.8663 28.0665 54.0096 26.1656 53.9588C24.2754 53.9108 22.3955 53.6628 20.5576 53.2187C20.0313 53.0954 19.505 52.9474 18.987 52.7829C18.4689 52.6185 17.9509 52.4458 17.4411 52.2484C14.3825 51.0858 11.5602 49.3779 9.11124 47.2078C8.70832 46.846 8.28895 46.4759 7.92714 46.0895C5.21402 43.3946 3.10848 40.1508 1.75172 36.5755C1.55437 36.0657 1.38168 35.5559 1.21722 35.0378C1.05277 34.5198 0.912976 33.9935 0.822524 33.459C0.431368 31.8731 0.186396 30.2546 0.090683 28.6239C0.0413454 27.8017 0.0331225 26.9794 0.090683 26.1571C0.148244 25.3348 0.181135 24.5125 0.279811 23.6902C0.337371 23.1475 0.4196 22.613 0.518276 22.0456C1.19069 18.3224 2.64222 14.7832 4.77775 11.66C5.09023 11.216 5.41092 10.772 5.75628 10.3444ZM48.0879 39.7496C47.833 40.1772 47.5617 40.5719 47.2657 40.9995C46.9696 41.4271 46.69 41.8218 46.3858 42.2C46.0816 42.5783 45.7609 42.973 45.4319 43.343C45.103 43.713 44.7741 44.0748 44.4041 44.4038L43.8943 43.8939L43.5818 43.5815L42.7595 42.7592L41.9372 41.9369C42.2414 41.6409 42.5292 41.3284 42.8088 41.0077C43.0884 40.687 43.368 40.3663 43.6311 40.0292L42.7019 39.3055C42.4552 39.6262 42.2003 39.9305 41.9372 40.2347C41.6741 40.539 41.3945 40.8268 41.1149 41.1064C40.8353 41.3859 40.5393 41.6655 40.2433 41.9287L41.0656 42.8085L41.8467 43.6966L42.669 44.5764L43.4913 45.4645L44.2725 46.3444C45.634 45.1353 46.8659 43.7877 47.9482 42.3234C49.0293 40.8568 49.9526 39.2802 50.7028 37.6198L49.6256 37.1347L49.0911 36.888L48.5484 36.6495L47.3232 36.1808L46.246 35.6957L45.1688 35.2105L44.8892 35.0789L44.0669 34.7254C44.2232 34.38 44.3712 34.0346 44.5027 33.681C44.6343 33.3275 44.7577 32.9739 44.8728 32.6121C44.9879 32.2503 45.0866 31.8885 45.177 31.5184C45.2675 31.1484 45.3415 30.7866 45.4073 30.4165C45.4731 30.0465 45.5388 29.6683 45.58 29.2982L46.1638 29.364L46.7476 29.438L47.9235 29.5778L49.0994 29.7176C49.0418 30.1616 48.976 30.6057 48.8938 31.0497C48.8116 31.4937 48.7211 31.9296 48.6142 32.3654L49.7572 32.645C49.8723 32.1927 49.971 31.724 50.0532 31.2635C50.1355 30.803 50.2095 30.3261 50.267 29.8574C50.3246 29.3887 50.3657 28.92 50.3904 28.4513L49.2145 28.3773H48.7705H48.0386L46.871 28.2046L46.0487 28.1552L44.5027 28.0648C44.4332 29.3003 44.2291 30.5245 43.8943 31.7158C43.5642 32.9099 43.1065 34.065 42.5292 35.1612L43.9025 35.8766L44.6261 36.2631L45.6622 36.8058L46.3118 37.1511L46.7065 37.3567L47.7508 37.9076L48.7211 38.4175L48.7951 38.4586C48.5895 38.8944 48.3511 39.3302 48.0879 39.7496ZM39.7499 48.0876C39.3305 48.3508 38.9276 48.5892 38.4589 48.8195C37.9902 49.0497 37.5708 49.2717 37.1186 49.4773C36.6663 49.6829 36.2058 49.872 35.7453 50.0447C35.2848 50.2174 34.8079 50.3818 34.331 50.5298L34.1254 49.8556L33.9856 49.4115L33.632 48.2768L33.2784 47.1502C33.6896 47.0269 34.1007 46.8871 34.4872 46.7391C34.8737 46.5911 35.3095 46.4266 35.6631 46.2457L35.1779 45.1767C34.8079 45.3412 34.4379 45.4974 34.0678 45.6372C33.6978 45.777 33.3113 45.9086 32.9249 46.0319C32.5384 46.1552 32.1601 46.2539 31.7736 46.3526L32.0697 47.4956L32.3493 48.6386L32.6288 49.7816L32.892 50.9328L33.1715 52.0758C36.2126 51.3304 39.0915 50.0345 41.6658 48.2521C42.0934 47.9561 42.4881 47.6436 42.9157 47.3229L42.1921 46.4019L41.8303 45.9332L41.4685 45.4727L40.7366 44.5353L40.013 43.5815L39.2812 42.644L39.0921 42.4056L38.5576 41.7231C38.8536 41.4846 39.1414 41.2461 39.4292 40.9912C39.717 40.7363 39.9801 40.4814 40.2515 40.2183C40.5229 39.9551 40.7778 39.6756 41.0244 39.396C41.2711 39.1164 41.5178 38.8204 41.7563 38.5244C41.9948 38.2283 42.2085 37.9241 42.4223 37.6116L42.9075 37.9488L43.3927 38.2777L44.3712 38.952L45.3415 39.6262C45.0866 39.9963 44.8152 40.3581 44.5192 40.7117C44.2232 41.0652 43.9518 41.4024 43.6558 41.7395L44.5356 42.5618C44.8481 42.2082 45.1441 41.8464 45.4402 41.4764C45.7362 41.1064 46.0075 40.7199 46.2625 40.3334C46.5174 39.9469 46.7887 39.5111 47.0354 39.1411L46.0487 38.5244L45.6704 38.3023L45.0372 37.9159L44.034 37.3074L43.3351 36.888L42.0112 36.0657C40.7369 38.1937 39.031 40.0313 37.0034 41.4599L37.8257 42.7592L38.2862 43.4334L38.9852 44.4038L39.4045 45.004L39.6594 45.3741L40.2926 46.3033L40.9175 47.2078V47.2736C40.5969 47.5614 40.1775 47.8327 39.7499 48.0876ZM28.4845 51.5988C27.9911 51.5988 27.4977 51.5988 27.0043 51.5988C26.511 51.5988 26.0094 51.5988 25.516 51.5988C25.0226 51.5988 24.5292 51.5248 24.0359 51.4673C23.5425 51.4097 23.0491 51.3357 22.564 51.2452L22.6873 50.5463L22.7695 50.0858L23.0244 48.9181L23.2382 47.7587C23.6576 47.8409 24.0605 47.8985 24.4963 47.9478C24.9322 47.9972 25.3186 48.0383 25.7709 48.063L25.7956 46.8706C25.3927 46.8706 24.9733 46.8131 24.595 46.7637C24.2168 46.7144 23.7727 46.6568 23.4109 46.5828C23.0491 46.5088 22.5886 46.4348 22.235 46.3361L21.9555 47.4791L21.6759 48.6221L21.3799 49.7816L21.1003 50.9245L20.8125 52.0675C24.3598 52.9323 28.0489 53.0443 31.6421 52.3964L31.4365 51.237L31.3296 50.6532L31.2227 50.0776L31.0089 48.9099L30.7951 47.7505L30.5895 46.5828L30.532 46.2868L30.3757 45.4645C30.7458 45.3987 31.1158 45.3247 31.4776 45.2343C31.8394 45.1438 32.2095 45.0451 32.5713 44.93C32.9331 44.8149 33.2867 44.6916 33.6403 44.56C33.9938 44.4284 34.3392 44.2804 34.6846 44.1242C35.0299 43.9679 35.3671 43.8035 35.7042 43.6308L35.9756 44.1488L36.2469 44.6751L36.7979 45.7194L37.3488 46.7637C36.9541 46.9775 36.5512 47.1749 36.14 47.3558C35.7289 47.5367 35.3177 47.7094 34.8984 47.8738L35.3095 48.9757C35.7535 48.8112 36.1894 48.6303 36.617 48.433C37.0528 48.2439 37.4393 48.0301 37.8915 47.8163C38.3438 47.6025 38.7138 47.364 39.125 47.1173L38.5329 46.0483L38.3027 45.6619L37.9162 45.0369L37.3077 44.0337L36.8883 43.3348L36.066 42.0109C33.9471 43.2887 31.582 44.1041 29.1259 44.4038L29.3068 45.9414L29.4054 46.7637L29.5452 47.9314L29.6357 48.6632L29.685 49.1073L29.8248 50.2749L29.9564 51.3604V51.4426C29.4794 51.5248 28.9778 51.5742 28.4845 51.5988ZM16.8819 49.4773C16.4297 49.2717 15.9856 49.0579 15.5416 48.8277C15.0975 48.5975 14.6699 48.3508 14.2506 48.0959C13.8312 47.8409 13.4283 47.5614 13.0007 47.2736C12.5731 46.9858 12.1784 46.698 11.8001 46.3937L12.2442 45.8345L12.532 45.4645L13.2556 44.5353L13.9792 43.5815C14.3164 43.8446 14.6535 44.0913 15.0071 44.338C15.3607 44.5847 15.7143 44.8067 16.0761 45.0287L16.6846 44.0255C16.3392 43.8199 16.0021 43.5979 15.6731 43.3677C15.3442 43.1374 15.0153 42.9072 14.7028 42.6605C14.3904 42.4138 14.0779 42.1507 13.7736 41.8875L12.9925 42.7756L12.1702 43.6555L11.389 44.5353L10.69 45.4481L9.86775 46.3279C12.2098 48.4079 14.9132 50.0411 17.844 51.1466C18.3291 51.3357 18.8225 51.5001 19.3159 51.6564L19.6695 50.5381L19.8422 49.9707L20.0149 49.4115L20.3684 48.2768L20.722 47.1502L21.0756 46.0483L21.1661 45.7523L21.421 44.93C21.7828 45.0451 22.1446 45.1438 22.5146 45.2343C22.8847 45.3247 23.2465 45.3987 23.6165 45.4727C23.9865 45.5467 24.3648 45.5961 24.7348 45.6372C25.1048 45.6783 25.4913 45.7194 25.8696 45.7359C26.2478 45.7523 26.6261 45.7359 27.0043 45.7359V49.28C26.5521 49.28 26.108 49.28 25.6558 49.28C25.2035 49.28 24.7595 49.2142 24.3154 49.1648L24.1757 50.3325C24.6471 50.3928 25.1158 50.4339 25.5818 50.4558C26.0587 50.4558 26.5274 50.4558 27.0043 50.4558C27.4813 50.4558 27.9418 50.4558 28.4187 50.4558L28.3447 49.28V48.8359V48.1041L28.2049 46.8706L28.1556 46.0483L28.0651 44.5024C27.4433 44.5354 26.8203 44.5354 26.1985 44.5024C25.5832 44.5024 24.9683 44.4694 24.3566 44.4038C23.1316 44.2195 21.9297 43.9052 20.7714 43.4663L20.2204 44.9136L19.9326 45.6783L19.5133 46.7802L19.2583 47.4627L19.1021 47.8821L18.6827 48.9839L18.2963 50.0118V50.0858C17.8084 49.8885 17.3369 49.6856 16.8819 49.4773ZM7.59822 42.2C7.29397 41.8135 6.99795 41.3777 6.71837 40.9995C6.43879 40.6212 6.16743 40.1772 5.89607 39.7578C5.62472 39.3384 5.39447 38.8944 5.16423 38.4586C4.93399 38.0228 4.71197 37.5705 4.5064 37.1182L5.15601 36.8304L5.5836 36.6331L6.67725 36.1808L7.75446 35.6957C7.92714 36.0821 8.11627 36.4686 8.31362 36.8387C8.51097 37.2087 8.71654 37.5869 8.93856 37.9488L9.94998 37.3403C9.74441 36.9949 9.54706 36.6495 9.35793 36.2877C9.1688 35.9259 8.99612 35.5723 8.83166 35.2105C8.6672 34.8487 8.51097 34.4705 8.37118 34.1004L7.2693 34.5198L6.16743 34.9392L5.05733 35.3585L3.95546 35.7779L2.85359 36.1808C3.49804 37.885 4.32515 39.5145 5.32047 41.0406C6.31049 42.552 7.45707 43.955 8.74121 45.226L9.5635 44.4038L9.98287 43.9844L10.4022 43.565L11.2245 42.7427L12.0468 41.9204L12.8691 41.0981L13.1569 40.8679L13.7736 40.2512C14.045 40.5225 14.3164 40.7774 14.5959 41.0324L15.4676 41.756C15.7636 41.9862 16.0678 42.2082 16.3803 42.4302C16.6928 42.6523 17.0053 42.8496 17.3342 43.0387C17.6631 43.2279 17.9838 43.4252 18.3209 43.5979L18.0413 44.1242L17.77 44.6422L17.2191 45.6865L16.6681 46.7308C16.2734 46.5253 15.8458 46.3033 15.5005 46.073C15.1551 45.8428 14.7357 45.5961 14.3657 45.3412L13.6996 46.3115C14.0943 46.5828 14.5219 46.8377 14.892 47.0844C15.262 47.3311 15.7143 47.5614 16.1254 47.7834C16.5366 48.0054 16.9477 48.211 17.4 48.4001L17.8851 47.3229L18.066 46.92L18.3703 46.2457L18.8554 45.1767L19.1926 44.4366L19.8257 43.0223C17.5513 41.9984 15.5174 40.508 13.8559 38.6477L12.6964 39.6756L12.0879 40.2101L11.2081 41.0324L10.6572 41.5257L10.32 41.8135L9.44016 42.6358L8.61786 43.3677L8.55208 43.417C8.22316 42.973 7.91069 42.5947 7.59822 42.2ZM2.75491 31.4444C2.66446 30.951 2.59045 30.4659 2.53289 29.9725C2.47533 29.4791 2.43422 28.9858 2.40133 28.4842C2.36844 27.9826 2.40133 27.4974 2.40133 27.004C2.40133 26.5107 2.40133 26.0091 2.40133 25.5157H3.1085H3.57721L4.76131 25.5815L5.93719 25.6555C5.93719 26.0748 5.93719 26.4778 5.93719 26.93C5.93719 27.3823 5.93719 27.7523 5.93719 28.2046L7.11307 28.1306C7.11307 27.7276 7.07195 27.3083 7.07195 26.93C7.07195 26.5518 7.07195 26.1077 7.11307 25.7213C7.15418 25.3348 7.17063 24.899 7.21997 24.5207L6.05231 24.3809L4.87643 24.2411L3.70877 24.1753L2.54112 24.0356L1.37346 23.8958C0.999469 26.9988 1.18889 30.1438 1.93262 33.1795C2.0587 33.6893 2.19849 34.1909 2.35199 34.6842L3.47853 34.3307L4.03769 34.158L4.59685 33.9853L5.75628 33.6317L6.88283 33.2781L8.00937 32.9328L8.30539 32.8341L9.12769 32.5792C9.24281 32.941 9.36615 33.2946 9.49772 33.6482C9.62929 34.0017 9.7773 34.3471 9.93353 34.6925C10.0898 35.0378 10.2542 35.375 10.4269 35.7121C10.5996 36.0493 10.7887 36.3699 10.9861 36.6906C11.1834 37.0113 11.389 37.332 11.6028 37.6445L11.1176 37.9816L10.6325 38.3188L9.65395 38.9931L8.68365 39.6591C8.42874 39.2891 8.19027 38.9108 7.95181 38.5326C7.71334 38.1543 7.49955 37.7103 7.29397 37.3567L6.24966 37.9076C6.47168 38.327 6.70192 38.7299 6.94861 39.1411C7.1953 39.5522 7.45021 39.9634 7.72157 40.3334C7.99292 40.7034 8.2725 41.1064 8.54386 41.4764L9.47305 40.7528L9.81841 40.4732L10.394 40.0209L11.3232 39.2973L11.9646 38.7957L13.1569 37.8254C11.6408 35.8792 10.5459 33.639 9.94176 31.2471L8.44518 31.6171L7.62289 31.8144L6.50457 32.0694L5.75628 32.2256L5.32869 32.3325L4.1857 32.6121L3.14139 32.8916H3.06738C2.95226 32.4147 2.84537 31.9296 2.75491 31.4444ZM10.616 15.6646L9.64573 14.9985L8.67543 14.3243L7.70512 13.6582L6.73481 12.9922L5.75628 12.3343C4.71695 13.8336 3.84297 15.4409 3.14961 17.1283C2.44997 18.8117 1.93174 20.5648 1.6037 22.3581L2.76314 22.5719L3.34696 22.6788L3.92257 22.7774L5.082 23.0241L6.24144 23.2379L7.40087 23.4106L7.6969 23.4599L8.51919 23.6162C8.45341 23.9944 8.39585 24.3645 8.35473 24.7345C8.31362 25.1045 8.2725 25.491 8.25606 25.8693C8.23961 26.2475 8.25606 26.6258 8.25606 27.004C8.25606 27.3823 8.25606 27.7605 8.25606 28.1388C8.25606 28.517 8.30539 28.8871 8.35473 29.2653L7.7709 29.3311L7.18707 29.4051L6.0112 29.5449L4.83532 29.6847C4.78598 29.2407 4.74486 28.7966 4.72019 28.3444C4.69553 27.8921 4.72019 27.4481 4.72019 27.004H3.54431C3.54431 27.4727 3.54431 27.9497 3.54431 28.4184C3.54431 28.8871 3.61832 29.3558 3.66766 29.8327C3.717 30.3096 3.79923 30.7619 3.88146 31.2306L5.04089 31.0168L5.4767 30.9428L6.20032 30.803L7.40087 30.5975L8.22316 30.4248L9.74441 30.1452C9.3043 27.6896 9.37991 25.1693 9.96643 22.7445L8.46163 22.3745L7.64756 22.2018L6.50457 21.914L5.75628 21.7742L5.32869 21.6673L4.2186 21.3795L3.14961 21.1164H3.07561C3.19073 20.6313 3.33052 20.1543 3.47031 19.6774C3.6101 19.2005 3.78278 18.7318 3.96368 18.2713C4.14459 17.8108 4.32549 17.3421 4.53107 16.8898C4.73664 16.4376 4.95044 15.9935 5.18068 15.5577C5.41092 15.1219 5.65761 14.6861 5.91252 14.2585L6.52102 14.6285L6.92394 14.867L7.93536 15.4837L8.94678 16.0922C8.72476 16.454 8.51919 16.824 8.31362 17.2023C8.10804 17.5805 7.93536 17.9588 7.76268 18.3453L8.83166 18.8304C8.99612 18.4686 9.1688 18.1068 9.35793 17.7532C9.54706 17.3996 9.74441 17.0461 9.94998 16.7089C10.1556 16.3718 10.3776 16.0264 10.6078 15.6975L10.616 15.6646Z" fill="white"/>
<path d="M49.7818 21.3795C49.6667 20.919 49.5433 20.4585 49.4035 20.0063C49.2637 19.554 49.1075 19.11 48.9348 18.6659C48.7621 18.2219 48.5895 17.7861 48.3921 17.3585L47.3149 17.8437L46.912 18.0246L46.2377 18.3288L45.1687 18.814L44.404 19.1593L42.9979 19.7925C43.5078 20.9205 43.8938 22.1006 44.1491 23.3119C44.4058 24.5258 44.5353 25.7632 44.5356 27.004H43.3843C43.3842 25.8461 43.2629 24.6913 43.0225 23.5586C42.7837 22.4264 42.4225 21.3235 41.9453 20.2694C41.8138 19.9652 41.6658 19.6691 41.5095 19.3813C40.4314 17.3266 38.9291 15.5244 37.102 14.094C36.8389 13.8884 36.5758 13.6911 36.2797 13.5019C35.3278 12.8504 34.311 12.2993 33.2455 11.8574C32.1862 11.4174 31.0838 11.0894 29.9563 10.8788L28.9778 10.7308C28.4022 10.665 27.8266 10.6239 27.2427 10.6157C26.6589 10.6075 26.0833 10.6157 25.4995 10.6815C24.3496 10.7862 23.214 11.0122 22.1116 11.3558C21.7992 11.4544 21.4867 11.5613 21.1824 11.6765C19.0199 12.5008 17.0577 13.7762 15.4264 15.4179C15.1879 15.6481 14.9659 15.8866 14.7439 16.1333L13.864 15.3521L12.7046 14.3242L12.0961 13.7897L11.2162 13.0086L10.6653 12.5152L10.3282 12.2274L9.4483 11.4462L8.62601 10.7144L8.552 10.6897C8.88092 10.3197 9.22629 9.95786 9.57165 9.60428C9.91701 9.25069 10.287 8.91355 10.6571 8.58463C11.0271 8.25572 11.4136 7.94324 11.8001 7.63077C12.1865 7.3183 12.6224 7.0305 13.0006 6.75092C13.3789 6.47134 13.8229 6.19998 14.2505 5.92863L14.6205 6.53712L14.859 6.93182L15.4757 7.94324L16.0842 8.95467C15.7224 9.17668 15.3606 9.40693 15.0152 9.64539C14.6699 9.88386 14.3245 10.1388 13.9874 10.4019L14.711 11.3311C15.0235 11.0844 15.3524 10.8459 15.6813 10.6239C16.0102 10.4019 16.3473 10.1717 16.6927 9.96609C17.0381 9.76051 17.3834 9.56316 17.737 9.37403L17.1861 8.33794L16.6351 7.29363L16.0842 6.24932L15.5415 5.17212L14.9988 4.11136C12.2284 5.57096 9.74599 7.52125 7.67215 9.86741L6.7923 9.08623C8.95972 6.63837 11.5536 4.60446 14.4478 3.08349C14.933 2.82858 15.4182 2.59011 15.9115 2.3681C19.3975 0.795284 23.18 -0.0122479 27.0043 -0.000109297C27.5388 -0.000109297 28.0815 -0.000109298 28.6489 0.0492283C29.2162 0.0985659 29.7343 0.131458 30.2934 0.197241C31.9002 0.390742 33.4858 0.73207 35.0298 1.21688C36.5913 1.70291 38.1051 2.33046 39.5525 3.09171C40.0376 3.34662 40.5063 3.60976 40.975 3.91401C42.6054 4.89527 44.1246 6.05049 45.5059 7.35942C46.8957 8.66133 48.1417 10.1086 49.2226 11.6765C49.5269 12.1205 49.8229 12.581 50.1107 13.0415C50.3985 13.5019 50.6534 13.9789 50.933 14.464C52.4577 17.3613 53.4387 20.5134 53.8275 23.7642C53.8933 24.3124 53.9426 24.8606 53.9755 25.4088C54.0084 25.9569 54.0248 26.5051 54.0248 27.0533H52.8243C52.8243 26.5271 52.8243 26.009 52.7749 25.491H51.5991H51.0152H50.4232L49.2391 25.565L48.0632 25.6308L46.8709 25.7952H46.5666L45.695 25.8528C45.695 25.4745 45.6374 25.0963 45.5963 24.718C45.5552 24.3398 45.4976 23.9697 45.4236 23.5997C45.3496 23.2297 45.2838 22.8596 45.1934 22.4978C45.1029 22.136 45.0043 21.766 44.8891 21.4042C44.774 21.0424 44.6507 20.6888 44.5191 20.3352L45.0701 20.1296L45.621 19.9158L46.7311 19.4965L47.833 19.0771C47.9892 19.4965 48.1372 19.8994 48.2688 20.3517C48.4003 20.8039 48.5237 21.2151 48.6306 21.6509L49.7818 21.3795ZM19.6694 3.46997C20.1463 3.32196 20.6233 3.18217 21.1084 3.06704C21.5936 2.95192 22.0705 2.84503 22.5639 2.75457C23.0573 2.66412 23.5424 2.59011 24.0358 2.53255C24.5292 2.47499 25.0225 2.46677 25.4912 2.40099V3.10816V3.57687L25.5653 4.76097L25.6393 5.93685C25.2117 5.93685 24.817 5.99441 24.3647 6.05197C23.9124 6.10953 23.5424 6.16709 23.1066 6.2411L23.4026 7.40053C23.7973 7.32652 24.2249 7.26896 24.5867 7.21963C24.9485 7.17029 25.409 7.1374 25.7873 7.11273C26.1655 7.08806 26.6096 7.07161 26.996 7.07161V3.54397V1.17577C23.3401 1.17955 19.7259 1.95283 16.3885 3.4453L16.8736 4.5225L17.1203 5.05699L17.3588 5.59971L17.8439 6.67691L18.3291 7.75412L18.8142 8.83132L18.9458 9.1109L19.2994 9.93319C18.954 10.0812 18.6169 10.2539 18.288 10.4266C17.959 10.5993 17.6219 10.7884 17.3012 10.9857C16.9805 11.1831 16.6598 11.3804 16.3473 11.5942C16.0349 11.808 15.7306 12.0383 15.4346 12.2685L14.563 12.9921L14.1765 12.5563L13.7818 12.1123L13.0006 11.2242L12.1783 10.3443C12.5155 10.0483 12.8608 9.76051 13.2062 9.48093C13.5515 9.20135 13.9216 8.93822 14.2916 8.65864L13.6256 7.68833C13.2391 7.95147 12.8608 8.23927 12.4908 8.51063C12.1208 8.78198 11.7507 9.10268 11.3971 9.41515C11.0436 9.72762 10.6982 10.0565 10.3693 10.3937L11.1916 11.216L11.504 11.5367L12.0221 12.0547L12.8444 12.877L13.42 13.4526L14.5136 14.5463C16.2727 12.7904 18.3827 11.4258 20.7055 10.5417L20.1546 9.09445L19.8668 8.32972L19.4474 7.22785L19.2583 6.57824L19.102 6.15887L18.6827 5.05699L18.288 4.02913V3.95512C18.7238 3.77422 19.1925 3.60976 19.6694 3.46997ZM31.4447 2.75457C31.9298 2.84503 32.415 2.95192 32.9001 3.06704C33.3853 3.18217 33.8622 3.32196 34.3309 3.46997C34.7996 3.61798 35.2765 3.77422 35.7452 3.95512C36.214 4.13603 36.6662 4.31693 37.1185 4.5225L36.8224 5.17212L36.6333 5.59971L36.1811 6.67691L35.6959 7.75412C35.3094 7.57321 34.9147 7.41698 34.52 7.26074C34.1253 7.1045 33.6977 6.97294 33.3113 6.84959L32.933 7.97614C33.3195 8.09948 33.6977 8.23105 34.076 8.37084C34.4542 8.51063 34.8161 8.66686 35.1861 8.83132C35.5561 8.99578 35.9097 9.16846 36.2633 9.35759L36.806 8.3215L37.3569 7.27719L37.9079 6.23287L38.4588 5.19678L39.0015 4.11136C36.231 2.6611 33.2183 1.73027 30.1125 1.3649C29.5945 1.29911 29.0764 1.258 28.5584 1.22511L28.4844 2.40099V2.98482V3.57687L28.4104 4.76097L28.3446 5.93685L28.2048 7.12095V7.4252L28.1555 8.29683C27.7772 8.29683 27.399 8.29683 27.0207 8.29683C26.6425 8.29683 26.2642 8.29683 25.8859 8.29683C25.5077 8.29683 25.1294 8.34617 24.7512 8.3955C24.3729 8.44484 24.0029 8.49418 23.6329 8.55996C23.2628 8.62575 22.8928 8.70798 22.531 8.79843L22.3748 8.22282L22.2021 7.65544L21.9143 6.50423L21.6347 5.36124C22.0705 5.25434 22.5063 5.16389 22.9504 5.08166C23.3944 4.99943 23.8467 4.93365 24.3154 4.87609L24.1756 3.70843C23.7069 3.76599 23.2382 3.84 22.7695 3.92223C22.3007 4.00446 21.8485 4.11136 21.3798 4.21003C20.9111 4.30871 20.4588 4.4485 20.0066 4.58829L20.3684 5.75594L20.4999 6.17531L20.7219 6.88249L21.0673 8.0008L21.314 8.8231L21.7745 10.3032C22.9571 9.93459 24.1754 9.69203 25.409 9.57961C26.6466 9.47112 27.8921 9.49041 29.1258 9.63717L29.3067 8.09948L29.4054 7.27719L29.5452 6.10953L29.6027 5.32013L29.6521 4.87609L29.7918 3.70843L29.9234 2.62301V2.54078C30.4442 2.59011 30.9513 2.66138 31.4447 2.75457ZM42.2002 7.59788C42.5949 7.91035 42.9732 8.22282 43.3432 8.55174C43.7133 8.88066 44.0751 9.22602 44.4287 9.57138C44.7822 9.91675 45.1194 10.2868 45.4483 10.6568C45.7772 11.0268 46.0897 11.4133 46.4022 11.7998L45.843 12.2356L45.473 12.5234L44.5438 13.2553L43.5817 13.9789C43.3186 13.6417 43.0472 13.3128 42.7594 13.0003C42.4716 12.6879 42.1838 12.3672 41.8796 12.0712L41.0573 12.8934C41.3451 13.173 41.6164 13.4691 41.8796 13.7651C42.1427 14.0611 42.3976 14.3736 42.6443 14.6943C42.8991 15.0053 43.1379 15.3292 43.3597 15.6646L44.404 15.015L45.3743 14.3407L46.3446 13.6746L47.3149 13.0086L48.2523 12.3343C46.1713 9.34214 43.4846 6.82076 40.3665 4.93365L39.7498 5.94507L39.4702 6.41378L39.166 6.91538L38.5575 7.9268L37.9408 8.93822L37.3323 9.94964L37.1678 10.2128L36.7156 10.9611C36.3949 10.7637 36.0659 10.5746 35.737 10.4019C35.4081 10.2292 35.0627 10.0648 34.7174 9.90852C34.372 9.75229 34.0267 9.60428 33.6731 9.47271C33.3195 9.34114 32.9659 9.2178 32.6041 9.10268C32.2423 8.98756 31.8805 8.88888 31.5104 8.79843L31.6502 8.23105L31.7982 7.65544L32.0696 6.50423L32.3492 5.36124C32.785 5.46814 33.2208 5.59149 33.6484 5.72305C34.076 5.85462 34.4707 6.00263 34.923 6.15887L35.3588 5.05699C34.9147 4.88431 34.4707 4.72808 34.0184 4.58829C33.5662 4.4485 33.1057 4.32515 32.6534 4.21003C32.2012 4.09491 31.6913 3.99624 31.2473 3.91401L31.0335 5.07344L30.9513 5.50926L30.8197 6.23287L30.5977 7.40053L30.425 8.22282L30.1454 9.74407C32.6036 10.1797 34.9412 11.1327 37.0034 12.5399L37.8256 11.2735L38.2861 10.5993L38.9522 9.62895L39.3716 9.02867L39.6265 8.65864L40.2925 7.69656L40.9175 6.79203V6.72625C41.4108 6.99761 41.8138 7.29363 42.2002 7.59788ZM51.2455 22.5636L50.5465 22.687L50.086 22.7692L48.9184 23.0241L47.759 23.2379C47.6849 22.8185 47.5945 22.4156 47.4958 21.988C47.3971 21.5604 47.282 21.1657 47.1505 20.7628L46.0486 21.067C46.1637 21.4453 46.2706 21.8318 46.3693 22.2265C46.4679 22.613 46.5502 23.0077 46.616 23.4024C46.6817 23.7971 46.7475 24.2247 46.7969 24.5865L47.9645 24.4467L49.1404 24.3069L50.3081 24.1671L51.4757 24.0273L52.6269 23.8957C52.2556 20.7854 51.3163 17.7697 49.8558 14.9985C49.6173 14.538 49.3624 14.0858 49.0911 13.6335L48.0796 14.2502L47.578 14.5545L47.0764 14.8587L46.0486 15.4755L45.0372 16.0839L44.0257 16.6924L43.7626 16.8569L43.0143 17.3092C42.8252 16.9802 42.6196 16.6678 42.3976 16.3553C42.1756 16.0428 41.9618 15.7386 41.7315 15.4426C41.5013 15.1465 41.2546 14.8587 40.9997 14.5709C40.7448 14.2831 40.4899 14.02 40.2267 13.7486C39.9636 13.4773 39.684 13.2224 39.4044 12.9757L39.7909 12.5316L40.1856 12.0876L41.0079 11.2077L41.7891 10.3197C42.1262 10.6239 42.4552 10.9282 42.7759 11.2489C43.0965 11.5696 43.4008 11.8903 43.6968 12.2274L44.5767 11.4462C44.256 11.0926 43.9353 10.7473 43.5981 10.4183C43.261 10.0894 42.9239 9.76051 42.5703 9.44804C42.2167 9.13557 41.8549 8.83132 41.4849 8.5353L40.7612 9.46449L40.4817 9.80985L40.0294 10.3855L39.3058 11.3146L38.8042 11.956L37.8256 13.1566C39.7834 14.6908 41.3947 16.6215 42.5538 18.8222L43.9271 18.0903L44.6507 17.7039L45.6868 17.1612L46.3364 16.8158L46.7311 16.6102L47.7754 16.0593L48.7539 15.6235L48.8279 15.5823C49.0582 16.0264 49.272 16.4704 49.4775 16.9227C49.6831 17.3749 49.8722 17.8354 50.0449 18.3041C50.2176 18.7728 50.3821 19.2333 50.5301 19.7103C50.6781 20.1872 50.8179 20.6641 50.933 21.1411C51.0481 21.618 51.155 22.0702 51.2455 22.5636Z" fill="white"/>
<path d="M27.0041 42.2495C23.9869 42.2511 21.037 41.3579 18.5275 39.6828C16.018 38.0077 14.0616 35.626 12.9058 32.839C11.7501 30.0519 11.4468 26.9846 12.0345 24.0252C12.6221 21.0658 14.0742 18.3471 16.2071 16.213C18.34 14.0789 21.058 12.6254 24.0171 12.0361C26.9762 11.4469 30.0436 11.7485 32.8313 12.9028C35.619 14.057 38.0018 16.0121 39.6782 18.5207C41.3546 21.0293 42.2495 23.9788 42.2495 26.996C42.2451 31.0387 40.6378 34.9147 37.7799 37.7742C34.922 40.6336 31.0469 42.243 27.0041 42.2495ZM27.0041 12.647C24.1698 12.6453 21.3986 13.4841 19.0409 15.0573C16.6832 16.6305 14.8448 18.8674 13.7583 21.4852C12.6718 24.103 12.3858 26.9843 12.9366 29.7646C13.4873 32.5449 14.8501 35.0995 16.8526 37.1055C18.855 39.1114 21.4073 40.4785 24.1867 41.0341C26.9661 41.5896 29.8478 41.3086 32.4675 40.2266C35.0872 39.1446 37.3272 37.3101 38.9045 34.9551C40.4817 32.6001 41.3252 29.8303 41.3285 26.996C41.322 23.1989 39.8107 19.5593 37.1258 16.8743C34.4409 14.1894 30.8012 12.6781 27.0041 12.6716V12.647Z" fill="white"/>
</g>
<defs>
<clipPath id="clip0_6346_540">
<rect width="207.399" height="54" fill="white"/>
</clipPath>
</defs>
</svg>
